<svg xmlns="http://www.w3.org/2000/svg" viewBox="0 0 36.09 39.18"><defs><style>.cls-1{fill:#d5b400;fill-rule:evenodd;}</style></defs><title>Risorsa 1</title><g id="Livello_2" data-name="Livello 2"><g id="svg"><path class="cls-1" d="M20.59,23.59c-.91-1.13-1.19-1.12-1,0a5.32,5.32,0,0,0,6.14,4.1c2.6-.7,4.07-3.43,2.76-5.1s-3.32-.17-2.88,2.19C26,27,22.61,26.14,20.59,23.59Z"/><path class="cls-1" d="M22.82,31.73a1.14,1.14,0,0,1,.87-.64c2.12-.46,2.36-2,.38-2.54a7.56,7.56,0,0,1-5.41-5.49c-.37-1.45-.8-1.68-1-.56-.71,3.37-2.71,5.24-6.81,6.35-1,.27.22,1.92,1.63,2.22.46.1.81.33.81.54,0,.56.6.66,2.13.34,1.33-.27,1.45-.26,2,.27l.6.57.62-.59c.59-.55.71-.57,1.9-.29C22.26,32.31,22.67,32.28,22.82,31.73Z"/><path class="cls-1" d="M10,22.49c-2-2-3.95,1.26-2.15,3.61,2.31,3,7.14,1.87,8.49-2,.57-1.67.17-1.75-1.18-.24S12.89,26,11.78,26c-1.37,0-1.5-.15-1.35-1.61C10.54,23.22,10.48,22.94,10,22.49Z"/><path class="cls-1" d="M15.59,10.2C14,5,11.28,1.92,10.19,4.14c-.23.47-.49.66-.83.6C6.84,4.3,5.93,4.58,5,6,3.88,7.9,4.6,9.41,6.14,8.36c3-2,6-.12,9.5,5.81l1.27,2.16H19.1l1.67-2.75c3.29-5.42,6.19-7.13,9-5.28,1.25.83,1.74.58,1.74-.86,0-2.18-2.58-3.6-4.8-2.63-.31.14-.52,0-.81-.59C24.71,2,22.19,4.68,20.54,10c-.77,2.5-1.37,3.67-1.64,3.23a1.17,1.17,0,0,1,.09-.83c1.49-3.46,2.3-9,1.39-9.41a3.85,3.85,0,0,1-1.31-1.67c-.86-1.76-1.31-1.77-2-.06A3.41,3.41,0,0,1,15.72,3c-1,.56-.93,1.19.52,6.47a23.78,23.78,0,0,1,.85,3.71C16.82,13.47,16.21,12.26,15.59,10.2Z"/><path class="cls-1" d="M19,35.63a1.86,1.86,0,0,0-2.31,2.9,1.77,1.77,0,0,0,2.69.06A1.76,1.76,0,0,0,19,35.63Z"/><path class="cls-1" d="M2,20c.56,0,.56.07,0-1.12-1.15-2.25.39-5.65,2.54-5.62h.58l-.67.5c-1.83,1.37-1.42,2.86.79,2.86,1.2,0,1.58.11,2.09.58.75.71,1.31.59,2.57-.51,1.09-1,2.27-.87,4,.29s2,.89,1.34-.63a9.29,9.29,0,0,0-5.3-5.06C4.76,9.32,0,11.62,0,16.05,0,18.16.94,20,2,20Z"/><path class="cls-1" d="M18.88,19.7c.45-.49.44-.53,0-1.17-.67-.9-1-1-1.44-.28C16.41,19.66,17.74,21,18.88,19.7Z"/><path class="cls-1" d="M32.73,11.1a9.64,9.64,0,0,0-11.44,4.31c-1.32,2.49-1.12,2.75,1.1,1.42,1.86-1.12,2.67-1.12,4.08,0s1.61,1.07,2.45.23a1.32,1.32,0,0,1,1.44-.5c2.36.44,3.12-.93,1.48-2.65-.95-1,0-1,1.18,0a4.1,4.1,0,0,1,1.06,4.94c-.75,1.56.6,1.5,1.39-.07A5.52,5.52,0,0,0,32.73,11.1Z"/></g></g></svg>