<svg id="Livello_1" data-name="Livello 1" xmlns="http://www.w3.org/2000/svg" viewBox="0 0 1200.5 900"><defs><style>.cls-1{fill:#242424;}.cls-2,.cls-3{fill:#d5b400;}.cls-3{font-size:48px;}.cls-3,.cls-4{font-family:MyriadPro-Regular, Myriad Pro;}.cls-4{font-size:22px;fill:#fff;}.cls-5{letter-spacing:-0.06em;}.cls-6{letter-spacing:-0.01em;}.cls-7{letter-spacing:-0.01em;}.cls-8{letter-spacing:-0.04em;}.cls-9{fill:#f5f5f5;}.cls-10{letter-spacing:0em;}</style></defs><title>sala-fuori</title><rect class="cls-1" x="0.5" y="0.5" width="1199" height="899"/><path d="M1647.5,112v898H449.5V112h1198m1-1H448.5v900h1200V111Z" transform="translate(-448.5 -111)"/><path class="cls-2" d="M1635,124V997H462V124H1635m1-1H461V998H1636V123Z" transform="translate(-448.5 -111)"/><text class="cls-3" transform="translate(480.48 96.08)">SALA FUORI</text><circle class="cls-2" cx="973.5" cy="834" r="20"/><text class="cls-4" transform="translate(1009.38 839.83)"><tspan class="cls-5">T</tspan><tspan class="cls-6" x="9.53" y="0">a</tspan><tspan class="cls-7" x="19.95" y="0">v</tspan><tspan x="30.32" y="0">olo</tspan><tspan class="cls-8" x="59.66" y="0"> </tspan><tspan x="63.54" y="0">VIP</tspan></text><circle class="cls-9" cx="973.5" cy="784" r="20"/><text class="cls-4" transform="translate(1009.38 789.83)"><tspan class="cls-5">T</tspan><tspan class="cls-6" x="9.53" y="0">a</tspan><tspan class="cls-7" x="19.95" y="0">v</tspan><tspan x="30.32" y="0">olo No</tspan><tspan class="cls-10" x="90.88" y="0">r</tspan><tspan x="98.16" y="0">male</tspan></text></svg>