<?xml version="1.0" encoding="utf-8"?>
<!-- Generator: Adobe Illustrator 24.0.3, SVG Export Plug-In . SVG Version: 6.00 Build 0)  -->
<svg version="1.1" id="Livello_1" xmlns="http://www.w3.org/2000/svg" xmlns:xlink="http://www.w3.org/1999/xlink" x="0px" y="0px"
	 viewBox="0 0 1200.5 900" style="enable-background:new 0 0 1200.5 900;" xml:space="preserve">
<style type="text/css">
	.st0{fill:#242424;}
	.st1{fill:#D5B400;}
	.st2{fill:#FFFFFF;}
	.st3{font-family:'ArialMT';}
	.st4{font-size:22px;}
	.st5{letter-spacing:-1;}
	.st6{fill:#F5F5F5;}
	.st7{fill:none;}
	.st8{font-family:'MyriadPro-Regular';}
	.st9{font-size:48px;}
</style>
<title>Risorsa 1</title>
<g id="Livello_2_1_">
	<g id="Livello_1-2">
		<rect x="0.5" y="0.5" class="st0" width="1199" height="899"/>
		<path d="M1199,1v898H1V1H1199 M1200,0H0v900h1200V0z"/>
		<path class="st1" d="M1186.5,13v873H13.5V13H1186.5 M1187.5,12H12.5v875h1175V12z"/>
		<circle class="st1" cx="973.5" cy="834" r="20"/>
		<text transform="matrix(1 0 0 1 1009.38 839.83)" class="st2 st3 st4 st5">T</text>
		<text transform="matrix(1 0 0 1 1018.91 839.83)" class="st2 st3 st4">a</text>
		<text transform="matrix(1 0 0 1 1029.33 839.83)" class="st2 st3 st4">v</text>
		<text transform="matrix(1 0 0 1 1039.7 839.83)" class="st2 st3 st4">olo</text>
		<text transform="matrix(1 0 0 1 1069.04 839.83)" class="st2 st3 st4"> </text>
		<text transform="matrix(1 0 0 1 1072.92 839.83)" class="st2 st3 st4">VIP</text>
		<circle class="st6" cx="973.5" cy="784" r="20"/>
		<text transform="matrix(1 0 0 1 1009.38 789.83)" class="st2 st3 st4 st5">T</text>
		<text transform="matrix(1 0 0 1 1018.91 789.83)" class="st2 st3 st4">a</text>
		<text transform="matrix(1 0 0 1 1029.33 789.83)" class="st2 st3 st4">v</text>
		<text transform="matrix(1 0 0 1 1039.7 789.83)" class="st2 st3 st4">olo No</text>
		<text transform="matrix(1 0 0 1 1100.26 789.83)" class="st2 st3 st4">r</text>
		<text transform="matrix(1 0 0 1 1107.54 789.83)" class="st2 st3 st4">male</text>
		<rect y="54" class="st7" width="1200.5" height="96.6"/>
		<text transform="matrix(1 0 0 1 457.668 88.0986)" class="st1 st8 st9">SALA DENTRO</text>
	</g>
</g>
</svg>
